<mxfile host="app.diagrams.net" modified="2023-04-26T21:57:30.813Z" agent="Mozilla/5.0 (Windows NT 10.0; Win64; x64; rv:109.0) Gecko/20100101 Firefox/112.0" etag="iWnnBHRR3Ufku7NZSVSU" version="21.2.1" type="github">
  <diagram id="C5RBs43oDa-KdzZeNtuy" name="Page-1">
    <mxGraphModel dx="1434" dy="912" grid="1" gridSize="10" guides="1" tooltips="1" connect="1" arrows="1" fold="1" page="1" pageScale="1" pageWidth="827" pageHeight="1169" math="0" shadow="0">
      <root>
        <mxCell id="WIyWlLk6GJQsqaUBKTNV-0" />
        <mxCell id="WIyWlLk6GJQsqaUBKTNV-1" parent="WIyWlLk6GJQsqaUBKTNV-0" />
        <mxCell id="5C46wKbyeRw9WGojaQCz-10" style="edgeStyle=orthogonalEdgeStyle;rounded=0;orthogonalLoop=1;jettySize=auto;html=1;exitX=1;exitY=0.5;exitDx=0;exitDy=0;entryX=0;entryY=0.5;entryDx=0;entryDy=0;" edge="1" parent="WIyWlLk6GJQsqaUBKTNV-1" source="5C46wKbyeRw9WGojaQCz-0" target="5C46wKbyeRw9WGojaQCz-5">
          <mxGeometry relative="1" as="geometry" />
        </mxCell>
        <mxCell id="5C46wKbyeRw9WGojaQCz-11" style="edgeStyle=orthogonalEdgeStyle;rounded=0;orthogonalLoop=1;jettySize=auto;html=1;exitX=0.5;exitY=1;exitDx=0;exitDy=0;entryX=0.5;entryY=0;entryDx=0;entryDy=0;" edge="1" parent="WIyWlLk6GJQsqaUBKTNV-1" source="5C46wKbyeRw9WGojaQCz-0" target="5C46wKbyeRw9WGojaQCz-2">
          <mxGeometry relative="1" as="geometry" />
        </mxCell>
        <mxCell id="5C46wKbyeRw9WGojaQCz-29" style="edgeStyle=orthogonalEdgeStyle;rounded=0;orthogonalLoop=1;jettySize=auto;html=1;exitX=1;exitY=0.5;exitDx=0;exitDy=0;entryX=0.5;entryY=0;entryDx=0;entryDy=0;" edge="1" parent="WIyWlLk6GJQsqaUBKTNV-1" source="5C46wKbyeRw9WGojaQCz-0" target="5C46wKbyeRw9WGojaQCz-26">
          <mxGeometry relative="1" as="geometry" />
        </mxCell>
        <mxCell id="5C46wKbyeRw9WGojaQCz-0" value="Start" style="rounded=1;whiteSpace=wrap;html=1;" vertex="1" parent="WIyWlLk6GJQsqaUBKTNV-1">
          <mxGeometry x="40" y="40" width="120" height="40" as="geometry" />
        </mxCell>
        <mxCell id="5C46wKbyeRw9WGojaQCz-25" style="edgeStyle=orthogonalEdgeStyle;rounded=0;orthogonalLoop=1;jettySize=auto;html=1;exitX=0.5;exitY=1;exitDx=0;exitDy=0;" edge="1" parent="WIyWlLk6GJQsqaUBKTNV-1" source="5C46wKbyeRw9WGojaQCz-2" target="5C46wKbyeRw9WGojaQCz-18">
          <mxGeometry relative="1" as="geometry" />
        </mxCell>
        <mxCell id="5C46wKbyeRw9WGojaQCz-2" value="Enter draggables" style="rounded=0;whiteSpace=wrap;html=1;fillColor=#dae8fc;strokeColor=#6c8ebf;" vertex="1" parent="WIyWlLk6GJQsqaUBKTNV-1">
          <mxGeometry x="40" y="120" width="120" height="40" as="geometry" />
        </mxCell>
        <mxCell id="5C46wKbyeRw9WGojaQCz-8" style="edgeStyle=orthogonalEdgeStyle;rounded=0;orthogonalLoop=1;jettySize=auto;html=1;exitX=0.5;exitY=1;exitDx=0;exitDy=0;" edge="1" parent="WIyWlLk6GJQsqaUBKTNV-1" source="5C46wKbyeRw9WGojaQCz-5" target="5C46wKbyeRw9WGojaQCz-6">
          <mxGeometry relative="1" as="geometry" />
        </mxCell>
        <mxCell id="5C46wKbyeRw9WGojaQCz-9" style="edgeStyle=orthogonalEdgeStyle;rounded=0;orthogonalLoop=1;jettySize=auto;html=1;exitX=1;exitY=0.5;exitDx=0;exitDy=0;entryX=0;entryY=0.5;entryDx=0;entryDy=0;" edge="1" parent="WIyWlLk6GJQsqaUBKTNV-1" source="5C46wKbyeRw9WGojaQCz-5" target="5C46wKbyeRw9WGojaQCz-7">
          <mxGeometry relative="1" as="geometry" />
        </mxCell>
        <mxCell id="5C46wKbyeRw9WGojaQCz-5" value="Select type of dropzones" style="rhombus;whiteSpace=wrap;html=1;fillColor=#f5f5f5;strokeColor=#666666;fontColor=#333333;" vertex="1" parent="WIyWlLk6GJQsqaUBKTNV-1">
          <mxGeometry x="460" y="20" width="80" height="80" as="geometry" />
        </mxCell>
        <mxCell id="5C46wKbyeRw9WGojaQCz-22" style="edgeStyle=orthogonalEdgeStyle;rounded=0;orthogonalLoop=1;jettySize=auto;html=1;exitX=0.5;exitY=1;exitDx=0;exitDy=0;entryX=0.5;entryY=0;entryDx=0;entryDy=0;" edge="1" parent="WIyWlLk6GJQsqaUBKTNV-1" source="5C46wKbyeRw9WGojaQCz-6" target="5C46wKbyeRw9WGojaQCz-19">
          <mxGeometry relative="1" as="geometry" />
        </mxCell>
        <mxCell id="5C46wKbyeRw9WGojaQCz-6" value="Enter dropzones" style="rounded=0;whiteSpace=wrap;html=1;fillColor=#dae8fc;strokeColor=#6c8ebf;" vertex="1" parent="WIyWlLk6GJQsqaUBKTNV-1">
          <mxGeometry x="440" y="200" width="120" height="40" as="geometry" />
        </mxCell>
        <mxCell id="5C46wKbyeRw9WGojaQCz-24" style="edgeStyle=orthogonalEdgeStyle;rounded=0;orthogonalLoop=1;jettySize=auto;html=1;exitX=0.5;exitY=1;exitDx=0;exitDy=0;entryX=0.5;entryY=0;entryDx=0;entryDy=0;" edge="1" parent="WIyWlLk6GJQsqaUBKTNV-1" source="5C46wKbyeRw9WGojaQCz-7" target="5C46wKbyeRw9WGojaQCz-15">
          <mxGeometry relative="1" as="geometry" />
        </mxCell>
        <mxCell id="5C46wKbyeRw9WGojaQCz-7" value="Enter group names" style="rounded=0;whiteSpace=wrap;html=1;fillColor=#dae8fc;strokeColor=#6c8ebf;" vertex="1" parent="WIyWlLk6GJQsqaUBKTNV-1">
          <mxGeometry x="640" y="40" width="120" height="40" as="geometry" />
        </mxCell>
        <mxCell id="5C46wKbyeRw9WGojaQCz-12" value="&lt;div&gt;Default&lt;/div&gt;" style="text;html=1;align=center;verticalAlign=middle;resizable=0;points=[];autosize=1;strokeColor=none;fillColor=none;" vertex="1" parent="WIyWlLk6GJQsqaUBKTNV-1">
          <mxGeometry x="440" y="98" width="60" height="30" as="geometry" />
        </mxCell>
        <mxCell id="5C46wKbyeRw9WGojaQCz-13" value="Group" style="text;html=1;align=center;verticalAlign=middle;resizable=0;points=[];autosize=1;strokeColor=none;fillColor=none;" vertex="1" parent="WIyWlLk6GJQsqaUBKTNV-1">
          <mxGeometry x="540" y="30" width="60" height="30" as="geometry" />
        </mxCell>
        <mxCell id="5C46wKbyeRw9WGojaQCz-23" style="edgeStyle=orthogonalEdgeStyle;rounded=0;orthogonalLoop=1;jettySize=auto;html=1;exitX=0.5;exitY=1;exitDx=0;exitDy=0;entryX=1;entryY=0.5;entryDx=0;entryDy=0;" edge="1" parent="WIyWlLk6GJQsqaUBKTNV-1" source="5C46wKbyeRw9WGojaQCz-15" target="5C46wKbyeRw9WGojaQCz-19">
          <mxGeometry relative="1" as="geometry" />
        </mxCell>
        <mxCell id="5C46wKbyeRw9WGojaQCz-15" value="Select each group&#39;s no. of dropzones" style="rounded=0;whiteSpace=wrap;html=1;fillColor=#dae8fc;strokeColor=#6c8ebf;" vertex="1" parent="WIyWlLk6GJQsqaUBKTNV-1">
          <mxGeometry x="640" y="120" width="120" height="40" as="geometry" />
        </mxCell>
        <mxCell id="5C46wKbyeRw9WGojaQCz-35" style="edgeStyle=orthogonalEdgeStyle;rounded=0;orthogonalLoop=1;jettySize=auto;html=1;exitX=1;exitY=0.5;exitDx=0;exitDy=0;entryX=0;entryY=0.5;entryDx=0;entryDy=0;" edge="1" parent="WIyWlLk6GJQsqaUBKTNV-1" source="5C46wKbyeRw9WGojaQCz-18" target="5C46wKbyeRw9WGojaQCz-33">
          <mxGeometry relative="1" as="geometry" />
        </mxCell>
        <mxCell id="5C46wKbyeRw9WGojaQCz-18" value="Generate drraggables" style="rounded=1;whiteSpace=wrap;html=1;fillColor=#ffe6cc;strokeColor=#d79b00;" vertex="1" parent="WIyWlLk6GJQsqaUBKTNV-1">
          <mxGeometry x="40" y="280" width="120" height="40" as="geometry" />
        </mxCell>
        <mxCell id="5C46wKbyeRw9WGojaQCz-36" style="edgeStyle=orthogonalEdgeStyle;rounded=0;orthogonalLoop=1;jettySize=auto;html=1;exitX=0;exitY=0.5;exitDx=0;exitDy=0;entryX=1;entryY=0.5;entryDx=0;entryDy=0;" edge="1" parent="WIyWlLk6GJQsqaUBKTNV-1" source="5C46wKbyeRw9WGojaQCz-19" target="5C46wKbyeRw9WGojaQCz-33">
          <mxGeometry relative="1" as="geometry" />
        </mxCell>
        <mxCell id="5C46wKbyeRw9WGojaQCz-19" value="Generate dropzones" style="rounded=1;whiteSpace=wrap;html=1;fillColor=#ffe6cc;strokeColor=#d79b00;" vertex="1" parent="WIyWlLk6GJQsqaUBKTNV-1">
          <mxGeometry x="440" y="280" width="120" height="40" as="geometry" />
        </mxCell>
        <mxCell id="5C46wKbyeRw9WGojaQCz-34" style="edgeStyle=orthogonalEdgeStyle;rounded=0;orthogonalLoop=1;jettySize=auto;html=1;exitX=0.5;exitY=1;exitDx=0;exitDy=0;entryX=0.5;entryY=0;entryDx=0;entryDy=0;" edge="1" parent="WIyWlLk6GJQsqaUBKTNV-1" source="5C46wKbyeRw9WGojaQCz-26" target="5C46wKbyeRw9WGojaQCz-33">
          <mxGeometry relative="1" as="geometry" />
        </mxCell>
        <mxCell id="5C46wKbyeRw9WGojaQCz-26" value="Enter frame height" style="rounded=0;whiteSpace=wrap;html=1;fillColor=#dae8fc;strokeColor=#6c8ebf;" vertex="1" parent="WIyWlLk6GJQsqaUBKTNV-1">
          <mxGeometry x="240" y="120" width="120" height="40" as="geometry" />
        </mxCell>
        <mxCell id="5C46wKbyeRw9WGojaQCz-32" value="Enter each draggable&#39;s ID" style="rounded=0;whiteSpace=wrap;html=1;fillColor=#dae8fc;strokeColor=#6c8ebf;" vertex="1" parent="WIyWlLk6GJQsqaUBKTNV-1">
          <mxGeometry x="40" y="200" width="120" height="40" as="geometry" />
        </mxCell>
        <mxCell id="5C46wKbyeRw9WGojaQCz-39" style="edgeStyle=orthogonalEdgeStyle;rounded=0;orthogonalLoop=1;jettySize=auto;html=1;exitX=0.5;exitY=1;exitDx=0;exitDy=0;entryX=0.5;entryY=0;entryDx=0;entryDy=0;" edge="1" parent="WIyWlLk6GJQsqaUBKTNV-1" source="5C46wKbyeRw9WGojaQCz-33" target="5C46wKbyeRw9WGojaQCz-37">
          <mxGeometry relative="1" as="geometry" />
        </mxCell>
        <mxCell id="5C46wKbyeRw9WGojaQCz-40" style="edgeStyle=orthogonalEdgeStyle;rounded=0;orthogonalLoop=1;jettySize=auto;html=1;exitX=0.5;exitY=1;exitDx=0;exitDy=0;entryX=0.5;entryY=0;entryDx=0;entryDy=0;" edge="1" parent="WIyWlLk6GJQsqaUBKTNV-1" source="5C46wKbyeRw9WGojaQCz-33" target="5C46wKbyeRw9WGojaQCz-38">
          <mxGeometry relative="1" as="geometry" />
        </mxCell>
        <mxCell id="5C46wKbyeRw9WGojaQCz-33" value="Generate DD" style="rounded=1;whiteSpace=wrap;html=1;fillColor=#ffe6cc;strokeColor=#d79b00;" vertex="1" parent="WIyWlLk6GJQsqaUBKTNV-1">
          <mxGeometry x="240" y="280" width="120" height="40" as="geometry" />
        </mxCell>
        <mxCell id="5C46wKbyeRw9WGojaQCz-42" style="edgeStyle=orthogonalEdgeStyle;rounded=0;orthogonalLoop=1;jettySize=auto;html=1;exitX=0.5;exitY=1;exitDx=0;exitDy=0;entryX=0;entryY=0.5;entryDx=0;entryDy=0;" edge="1" parent="WIyWlLk6GJQsqaUBKTNV-1" source="5C46wKbyeRw9WGojaQCz-37" target="5C46wKbyeRw9WGojaQCz-41">
          <mxGeometry relative="1" as="geometry" />
        </mxCell>
        <mxCell id="5C46wKbyeRw9WGojaQCz-37" value="Copy answer" style="rounded=0;whiteSpace=wrap;html=1;fillColor=#f8cecc;strokeColor=#b85450;" vertex="1" parent="WIyWlLk6GJQsqaUBKTNV-1">
          <mxGeometry x="160" y="400" width="120" height="40" as="geometry" />
        </mxCell>
        <mxCell id="5C46wKbyeRw9WGojaQCz-43" style="edgeStyle=orthogonalEdgeStyle;rounded=0;orthogonalLoop=1;jettySize=auto;html=1;exitX=0.5;exitY=1;exitDx=0;exitDy=0;entryX=1;entryY=0.5;entryDx=0;entryDy=0;" edge="1" parent="WIyWlLk6GJQsqaUBKTNV-1" source="5C46wKbyeRw9WGojaQCz-38" target="5C46wKbyeRw9WGojaQCz-41">
          <mxGeometry relative="1" as="geometry" />
        </mxCell>
        <mxCell id="5C46wKbyeRw9WGojaQCz-38" value="Download DD" style="rounded=0;whiteSpace=wrap;html=1;fillColor=#f8cecc;strokeColor=#b85450;" vertex="1" parent="WIyWlLk6GJQsqaUBKTNV-1">
          <mxGeometry x="320" y="400" width="120" height="40" as="geometry" />
        </mxCell>
        <mxCell id="5C46wKbyeRw9WGojaQCz-41" value="Stop" style="ellipse;whiteSpace=wrap;html=1;aspect=fixed;" vertex="1" parent="WIyWlLk6GJQsqaUBKTNV-1">
          <mxGeometry x="260" y="480" width="80" height="80" as="geometry" />
        </mxCell>
      </root>
    </mxGraphModel>
  </diagram>
</mxfile>
